HIERARCHY
ROOT Hips
{
	OFFSET -3.958830 18.904000 13.208200
	CHANNELS 6 Xposition Yposition Zposition Zrotation Yrotation Xrotation 
	JOINT LHipJoint
	{
		OFFSET 0.000000 0.000000 0.000000
		CHANNELS 3 Zrotation Yrotation Xrotation
		JOINT LeftUpLeg
		{
			OFFSET 1.800000 -1.400000 0.085000
			CHANNELS 3 Zrotation Yrotation Xrotation
			JOINT LeftLeg
			{
				OFFSET 2.215000 -6.000000 0.000000
				CHANNELS 3 Zrotation Yrotation Xrotation
				JOINT LeftFoot
				{
					OFFSET 2.500000 -6.900000 0.000000
					CHANNELS 3 Zrotation Yrotation Xrotation
					JOINT LeftToeBase
					{
						OFFSET 0.200000 -0.500000 1.950000
						CHANNELS 3 Zrotation Yrotation Xrotation
						End Site
						{
							OFFSET 0.000000 0.000000 0.000000
						}
					}
				}
			}
		}
	}
	JOINT RHipJoint
	{
		OFFSET 0.000000 0.000000 0.000000
		CHANNELS 3 Zrotation Yrotation Xrotation
		JOINT RightUpLeg
		{
			OFFSET -1.800000 -1.400000 0.085000
			CHANNELS 3 Zrotation Yrotation Xrotation
			JOINT RightLeg
			{
				OFFSET -2.215000 -6.000000 0.000000
				CHANNELS 3 Zrotation Yrotation Xrotation
				JOINT RightFoot
				{
					OFFSET -2.500000 -6.900000 0.000000
					CHANNELS 3 Zrotation Yrotation Xrotation
					JOINT RightToeBase
					{
						OFFSET -0.200000 -0.500000 1.950000
						CHANNELS 3 Zrotation Yrotation Xrotation
						End Site
						{
							OFFSET 0.000000 0.000000 0.000000
						}
					}
				}
			}
		}
	}
	JOINT LowerBack
	{
		OFFSET 0.000000 0.000000 0.000000
		CHANNELS 3 Zrotation Yrotation Xrotation
		JOINT Spine
		{
			OFFSET -0.087000 1.940000 -0.288900
			CHANNELS 3 Zrotation Yrotation Xrotation
			JOINT Spine1
			{
				OFFSET 0.000000 1.950000 0.060000
				CHANNELS 3 Zrotation Yrotation Xrotation
				JOINT Neck
				{
					OFFSET 0.000000 0.000000 0.000000
					CHANNELS 3 Zrotation Yrotation Xrotation
					JOINT Neck1
					{
						OFFSET 0.000000 1.600000 0.340000
						CHANNELS 3 Zrotation Yrotation Xrotation
						JOINT Head
						{
							OFFSET 0.000000 1.667000 -0.240000
							CHANNELS 3 Zrotation Yrotation Xrotation
							End Site
							{
								OFFSET 0.000000 0.000000 0.000000
							}
						}
					}
				}
				JOINT LeftShoulder
				{
					OFFSET 0.000000 0.000000 0.000000
					CHANNELS 3 Zrotation Yrotation Xrotation
					JOINT LeftArm
					{
						OFFSET 2.700000 1.550000 -0.730000
						CHANNELS 3 Zrotation Yrotation Xrotation
						JOINT LeftForeArm
						{
							OFFSET 5.450000 0.000000 0.000000
							CHANNELS 3 Zrotation Yrotation Xrotation
							JOINT LeftHand
							{
								OFFSET 3.450000 0.000000 0.000000
								CHANNELS 3 Zrotation Yrotation Xrotation
								JOINT LeftHandIndex1
								{
									OFFSET 0.750000 0.000000 0.000000
									CHANNELS 3 Zrotation Yrotation Xrotation
									End Site
									{
										OFFSET 0.000000 0.000000 0.000000
									}
								}
							}
						}
					}
				}
				JOINT RightShoulder
				{
					OFFSET 0.000000 0.000000 0.000000
					CHANNELS 3 Zrotation Yrotation Xrotation
					JOINT RightArm
					{
						OFFSET -2.700000 1.550000 -0.730000
						CHANNELS 3 Zrotation Yrotation Xrotation
						JOINT RightForeArm
						{
							OFFSET -5.450000 0.000000 0.000000
							CHANNELS 3 Zrotation Yrotation Xrotation
							JOINT RightHand
							{
								OFFSET -3.450000 0.000000 0.000000
								CHANNELS 3 Zrotation Yrotation Xrotation
								JOINT RightHandIndex1
								{
									OFFSET -0.750000 0.000000 0.000000
									CHANNELS 3 Zrotation Yrotation Xrotation
									End Site
									{
										OFFSET 0.000000 0.000000 0.000000
									}
								}
							}
						}
					}
				}
			}
		}
	}
}
MOTION
Frames: 8
Frame Time: 0.016667
-2.878660 17.109120 -2.282500 -8.326758 -38.069293 -0.559822 -15.124950 13.085691 3.297019 0.155606 -2.229697 -32.185207 5.305793 3.926784 23.714723 -0.646800 3.409656 3.381065 0.584640 0.226670 0.531070 18.240524 -11.391899 2.946779 1.509493 0.921841 0.475637 3.882954 -6.468996 27.373606 -0.743922 -5.366197 2.729596 0.131760 0.281480 0.234310 -3.155126 -0.711863 -7.298773 -3.044789 9.887011 15.352170 -6.409962 11.286564 5.578906 1.689124 -4.083312 -8.792578 -9.841630 12.163106 43.576056 5.312700 8.100550 -7.408820 -13.691723 3.717967 0.983675 -18.200628 7.897261 -3.119011 16.019716 -7.485395 -1.453472 -3.882881 2.780073 0.611510 0.104940 0.066450 0.271690 9.783964 2.619702 5.165561 18.102615 -6.633800 -6.235224 -0.845993 28.007805 -0.153481 2.086836 -1.350474 -0.203070 0.242680 -0.202440 -0.186410 
-2.934410 17.095760 -2.239310 -9.567761 -39.165387 -0.398205 -15.067276 13.056252 3.221437 0.005320 -2.105004 -31.005937 5.329798 3.571407 21.642296 -0.717261 3.124745 3.480860 0.586830 0.215840 0.540790 18.285744 -11.454709 3.034175 1.706244 1.355410 1.264208 4.769174 -7.060784 29.474955 -0.829803 -5.747714 2.593160 0.131950 0.262400 0.245420 -3.341307 -0.500296 -7.313836 -0.834867 9.772333 15.139993 -7.241542 11.458818 5.817410 1.966852 -4.050166 -8.842314 -10.007561 12.373319 45.110013 4.526320 8.520170 -7.025560 -13.180339 4.291305 0.769003 -17.599501 7.682549 -2.867102 16.292282 -5.408446 -1.263713 -3.925386 2.761846 0.632610 0.106220 0.069770 0.257480 8.528966 1.751509 5.253948 17.948422 -7.885246 -6.360254 -1.814136 27.938181 -0.290239 2.065840 -1.370273 -0.208590 0.223040 -0.191980 -0.208390 
-3.007950 17.037100 -2.151100 -11.038217 -41.757400 -0.248715 -14.974788 12.980656 3.126691 0.181073 -1.880895 -29.395626 5.070124 3.202618 18.349365 -0.769406 2.737970 3.646907 0.600860 0.210690 0.574700 18.352710 -11.564838 3.128054 0.768622 3.202126 1.648203 6.997477 -8.636470 35.723231 -1.027542 -6.719579 2.243247 0.147260 0.244560 0.216610 -3.679874 -0.092421 -7.340692 2.104037 9.823905 14.882421 -8.051703 11.692597 5.119931 1.984930 -4.494559 -8.432699 -10.765316 13.010172 45.964036 4.989630 8.597680 -5.854510 -11.440953 6.771162 0.377289 -17.696576 9.441151 -3.207543 15.194832 -7.068744 -1.327078 -3.887490 2.778316 0.639670 0.081100 0.063380 0.257760 6.388838 -0.449427 4.938192 16.664795 -9.341243 -6.254042 -0.805942 29.119920 0.006201 2.077259 -1.451312 -0.232180 0.220990 -0.217510 -0.221840 
-3.098630 16.939890 -2.054600 -12.955688 -45.910420 0.888628 -14.914994 12.884430 3.025913 1.722009 -1.449171 -28.483845 3.437775 3.332470 15.783855 -0.772383 2.605417 3.698314 0.579880 0.182880 0.519410 18.407416 -11.604621 3.203256 0.102858 5.413296 1.658930 7.954812 -9.917118 42.263570 -1.225593 -7.740183 1.915859 0.126180 0.291680 0.251040 -4.008406 0.245879 -7.319436 4.705132 10.205438 13.524402 -8.238975 12.039031 4.486045 1.914576 -5.147802 -8.214655 -11.804873 14.334923 46.061076 5.865450 8.889350 -3.816160 -8.284310 9.597900 0.332422 -19.608545 11.498044 -3.797759 13.970306 -7.294677 -1.291740 -3.943052 2.819891 0.609520 0.115690 0.033050 0.269640 3.127012 -2.552404 4.865110 15.383311 -10.262284 -5.872343 0.422693 29.299407 0.374143 2.057675 -1.543816 -0.214720 0.190850 -0.190890 -0.198060 
-3.210690 16.823360 -1.987780 -13.681899 -50.745575 1.460938 -14.972957 12.961324 3.004743 2.722901 -1.042767 -29.051102 2.818173 3.807916 16.538233 -0.745283 2.843323 3.637845 0.420230 -0.012670 0.370740 18.335505 -11.557171 3.174078 -1.353400 7.173019 1.785429 7.807197 -10.532820 46.893115 -1.256398 -8.431818 1.725504 0.044610 0.417860 0.199280 -3.823556 0.094962 -7.318312 3.516177 11.092697 12.430510 -6.348758 12.434255 2.127289 1.608962 -5.729947 -8.357299 -12.655420 15.841931 44.934473 7.973410 8.773980 1.462770 -4.728003 12.322366 0.763246 -21.896654 15.423982 -4.869236 13.026036 -7.704680 -1.212216 -4.023962 2.803904 0.568350 0.176430 -0.100930 0.253350 0.499917 -3.744802 4.993230 13.760928 -11.616581 -5.749482 0.592682 31.338381 0.702821 2.040738 -1.614933 -0.301200 0.204050 -0.098180 -0.187930 
-3.291200 16.706700 -1.904790 -15.862681 -55.295923 2.200421 -14.930027 13.292535 2.997979 3.872081 -0.234521 -29.626734 4.002765 4.306190 20.193992 -0.629213 3.257537 3.468507 0.387850 -0.096050 0.371480 18.278983 -11.651637 3.222630 -2.687855 7.936822 3.025774 7.052977 -10.579409 48.856660 -1.330554 -8.647793 1.647774 -0.038040 0.385480 0.194930 -3.691980 -0.147850 -7.513931 4.355521 11.027045 14.268200 -5.344287 12.328285 -2.460755 1.691053 -5.945532 -9.456409 -13.532424 17.181709 47.870787 9.822000 9.021170 4.469890 -1.315814 14.516599 1.401589 -23.169568 21.141031 -6.123228 11.077424 -6.936024 -1.011154 -3.961343 2.759117 0.641220 0.114130 -0.063380 0.260420 -2.768506 -4.405585 5.648974 13.204157 -11.582046 -5.441791 -0.843361 29.738790 0.744843 2.124469 -1.594813 -0.306780 0.162290 -0.112740 -0.196160 
-3.348460 16.581400 -1.842500 -16.200146 -59.227612 1.875033 -14.977432 13.506846 3.098063 4.412116 0.208186 -31.245777 4.582658 5.475186 26.578758 -0.543086 4.257114 3.043733 0.358730 -0.207580 0.411880 18.181032 -11.679289 3.084246 -5.083987 7.992211 3.982190 6.482699 -10.674660 48.871008 -1.297180 -8.636311 1.598522 -0.095820 0.341650 0.211520 -3.426478 -0.476947 -7.569770 3.279955 11.491041 15.055385 -3.903809 12.736845 -5.175530 1.440068 -5.797623 -9.487089 -13.787589 17.140018 48.639572 10.886310 8.343620 4.819290 -0.221099 16.316855 1.367279 -21.707575 24.669799 -6.322756 9.178205 -5.833207 -1.030613 -3.943185 2.738802 0.712380 0.068520 -0.061050 0.199200 -3.098749 -5.703112 5.847540 12.949351 -16.567169 -6.203883 -6.080557 30.983345 0.033624 2.162441 -1.596404 -0.327790 0.115680 -0.067030 -0.250180 
-3.415450 16.459730 -1.786190 -16.541036 -61.766872 1.611351 -15.036023 13.603572 3.235890 4.926027 0.436453 -32.939425 5.652347 6.461886 32.943814 -0.390342 5.368133 2.612035 0.330430 -0.236490 0.392740 18.111897 -11.675145 2.908455 -6.786206 7.571735 5.000384 5.491956 -10.460505 48.194459 -1.256541 -8.537042 1.615353 -0.115140 0.343160 0.222690 -3.237354 -0.719601 -7.601489 2.775856 11.434160 15.213690 -2.673543 12.763765 -6.147752 1.467943 -5.440671 -9.468054 -13.157086 17.249153 49.298869 10.764840 8.901150 5.268200 0.406147 17.261489 1.326680 -21.379142 26.574129 -6.339447 9.030887 -4.108577 -0.934757 -3.984500 2.689104 0.721440 0.072150 -0.056930 0.187800 -3.539344 -6.637888 5.982114 12.187910 -16.531417 -5.497206 -10.653127 24.168778 -0.498814 2.279541 -1.493274 -0.331990 0.102200 -0.045560 -0.253190 
